# xmcd
#
# Track frame offsets: 
#        150
#        18842
#        33637
#        49927
#        68072
#        93002
#        108570
#        134425
#        150052
#        164597
#
# Disc length: 2517 seconds
#
# Revision: 0
# Processed by: cddbd v1.5.1PL0 Copyright (c) Steve Scherf et al.
# Submitted via: ExactAudioCopy v0.95a5
#
DISCID=7709d30a
DTITLE=Lyn Collins - Check Me Out
DYEAR=1975
DGENRE=Soul
TTITLE0=A Foggy Day
TTITLE1=To Each His Own
TTITLE2=Put It On The Line
TTITLE3=Mr. Big Stuff
TTITLE4=How Long Can I Keep It Up
TTITLE5=Baby Don't Do It
TTITLE6=Backstabbers
TTITLE7=Rock Me Again and Again and Again and Again and Again and Again
TTITLE8=Try A Little Tenderness
TTITLE9=If You Don't Know Me By Now
EXTD=
EXTT0=
EXTT1=
EXTT2=
EXTT3=
EXTT4=
EXTT5=
EXTT6=
EXTT7=
EXTT8=
EXTT9=
PLAYORDER=
